# xmcd CD database file
#
# Track frame offsets:
#	150
#	14455
#	38850
#	56240
#	77042
#	97975
#	118535
#	138285
#	158597
#	175462
#	201105
#	217060
#
# Disc length: 3229 seconds
#
# Revision: 0
# Processed by: cddbd v1.5.1PL2 Copyright (c) Steve Scherf et al.
# Submitted via: CDex 1.51
#
DISCID=a30c9b0c
DTITLE=Various Artist - Megahit 5
DYEAR=1993
DGENRE=Pop
TTITLE0=Roxette/How Do You Do!
TTITLE1=Jon Secada/Just Another Day
TTITLE2=Wilson Philips/You Won't See Me Cry
TTITLE3=Charles and Eddie/Would I Lie To You?
TTITLE4=Tasmin Archer/Sleeping Satellite
TTITLE5=Genesis/Hold On My Heart
TTITLE6=Go West/Faithful
TTITLE7=Brain May/Too Much Love Will Kill You
TTITLE8=Cliff Richard/I Still Believe In You
TTITLE9=Duran Duran/Ordinary World
TTITLE10=The Barrio Boyzz/Crazy Coolin'
TTITLE11=Richard Marx/Chains Around My Heart
EXTD=YEAR: 1993
EXTT0=
EXTT1=
EXTT2=
EXTT3=
EXTT4=
EXTT5=
EXTT6=
EXTT7=
EXTT8=
EXTT9=
EXTT10=
EXTT11=
PLAYORDER=
